<svg width="534" height="107" viewBox="0 0 534 107" fill="none" xmlns="http://www.w3.org/2000/svg">
<g opacity="0.6">
<path d="M72.6099 0V76.2172H52.2368V16.4832H34.2606L32.9917 40.0105C32.1927 52.549 29.7254 61.6829 25.5897 67.4121C21.454 73.1413 15.2974 76.0764 7.12 76.2172H0.211485L0 59.6636L2.53782 59.4523C6.20356 59.1705 8.88238 57.0103 10.5743 52.9717C12.2661 48.9331 13.3236 42.0533 13.7465 32.3325L15.1564 0H72.6099Z" fill="white"/>
<path d="M116.81 47.4068L130.909 0H152.763L122.097 88.0514L120.406 92.0665C115.847 102.022 108.327 107 97.8471 107C94.8863 107 91.8785 106.554 88.8238 105.662V90.235L91.9255 90.3055C95.7793 90.3055 98.6461 89.7185 100.526 88.5444C102.453 87.3704 103.957 85.4215 105.038 82.6978L107.434 76.4286L80.7168 0H102.641L116.81 47.4068Z" fill="white"/>
<path d="M225.091 76.2172H204.718V52.2673C200.911 52.9717 197.363 53.3239 194.073 53.3239C182.559 53.3239 173.888 50.8819 168.06 45.998C162.233 41.1141 159.272 33.9761 159.178 24.5839V0H179.551V24.5839C179.598 28.9982 180.679 32.1681 182.794 34.0935C184.909 35.9719 188.668 36.9111 194.073 36.9111C197.457 36.9111 201.005 36.512 204.718 35.7136V0H225.091V76.2172Z" fill="white"/>
<path d="M261.114 0V59.8045H282.051V0H302.494V59.8045H323.431V0H343.804V76.2172H240.741V0H261.114Z" fill="white"/>
<path d="M406.122 0H426.495V76.2172H406.122V29.1626L380.603 76.2172H360.159V0H380.603V46.9842L406.122 0Z" fill="white"/>
<path d="M488.531 52.1968L508.481 0H534V76.2172H513.627V29.4444L495.369 76.2172H481.693L463.787 30.2192V76.2172H443.414V0H468.722L488.531 52.1968Z" fill="white"/>
</g>
</svg>
